<svg xmlns="http://www.w3.org/2000/svg" viewBox="0 0 800 400">
  <defs>
    <linearGradient id="bg" x1="0" y1="0" x2="1" y2="1"><stop offset="0" stop-color="#022c22"/><stop offset=".6" stop-color="#065f46"/><stop offset="1" stop-color="#10b981"/></linearGradient>
    <radialGradient id="glow" cx=".7" cy=".45" r=".5"><stop offset="0" stop-color="#fef08a" stop-opacity=".55"/><stop offset="1" stop-color="#fef08a" stop-opacity="0"/></radialGradient>
    <linearGradient id="gold" x1="0" y1="0" x2="1" y2="1"><stop offset="0" stop-color="#fef08a"/><stop offset=".5" stop-color="#fbbf24"/><stop offset="1" stop-color="#b45309"/></linearGradient>
  </defs>
  <rect width="800" height="400" fill="url(#bg)"/><rect width="800" height="400" fill="url(#glow)"/>
  <!-- photo frames -->
  <g transform="translate(330 120) rotate(-10)"><rect width="150" height="120" rx="8" fill="#f8fafc"/><rect x="10" y="10" width="130" height="80" fill="#38bdf8"/><path d="M10 90l40-40 30 30 20-20 40 30z" fill="#16a34a"/><circle cx="110" cy="32" r="10" fill="#fde047"/></g>
  <g transform="translate(250 200) rotate(8)"><rect width="130" height="104" rx="8" fill="#f8fafc"/><rect x="9" y="9" width="112" height="68" fill="#c084fc"/><path d="M45 34l10-12h20l10 12-20 22z" fill="#e0f2fe"/></g>
  <!-- trophy -->
  <g transform="translate(600 70)">
    <path d="M-70 20h140v40c0 60-30 100-70 100s-70-40-70-100z" fill="url(#gold)"/>
    <path d="M-70 40h-30c0 40 20 60 40 64M70 40h30c0 40-20 60-40 64" stroke="#fbbf24" stroke-width="12" fill="none"/>
    <rect x="-14" y="158" width="28" height="40" fill="#b45309"/><rect x="-56" y="196" width="112" height="30" rx="8" fill="#92400e"/>
    <path d="M0 50l10 22 24 3-18 16 5 24-21-12-21 12 5-24-18-16 24-3z" fill="#fff7ed" opacity=".9"/>
  </g>
  <!-- check badge -->
  <g transform="translate(110 120)"><circle r="56" fill="#22c55e"/><circle r="56" fill="none" stroke="#bbf7d0" stroke-width="6"/><path d="M-24 2l16 16 32-34" stroke="#fff" stroke-width="12" fill="none" stroke-linecap="round" stroke-linejoin="round"/></g>
  <g><rect x="150" y="300" width="12" height="12" fill="#fde047" transform="rotate(20 156 306)"/><rect x="520" y="330" width="10" height="10" fill="#f472b6" transform="rotate(-20 525 335)"/><rect x="740" y="300" width="12" height="12" fill="#60a5fa" transform="rotate(35 746 306)"/><rect x="470" y="60" width="10" height="10" fill="#fde047"/><rect x="60" y="260" width="10" height="10" fill="#60a5fa"/></g>
</svg>
